<svg xmlns="http://www.w3.org/2000/svg" xmlns:xlink="http://www.w3.org/1999/xlink" aria-hidden="true" role="img" class="iconify iconify--logos" width="31.88" height="32" preserveAspectRatio="xMidYMid meet" viewBox="0 0 256 257"><defs><linearGradient id="IconifyId1813088fe1fbc01bf2" x1="-9.135%" x2="89.486%" y1="12.813%" y2="94.135%"><stop offset="0%" stop-color="#41D1FF"></stop><stop offset="100%" stop-color="#BD34FE"></stop></linearGradient><linearGradient id="IconifyId1813088fe1fbc01bf3" x1="102.535%" x2="5.195%" y1="36.427%" y2="137.946%"><stop offset="0%" stop-color="#FFEA83"></stop><stop offset="8.333%" stop-color="#FFDD35"></stop><stop offset="100%" stop-color="#FFA800"></stop></linearGradient></defs><path fill="url(#IconifyId1813088fe1fbc01bf2)" d="M255.803 116.715l-86.74 227.059c-2.484 6.505-11.728 6.505-14.212 0L68.113 116.715c-1.898-4.97 1.748-10.432 7.106-10.432H248.697c5.358 0 9.004 5.462 7.106 10.432z"></path><path fill="url(#IconifyId1813088fe1fbc01bf3)" d="M150.81 1.702l-106.69 82.25a4.8 4.8 0 01-5.76 0L1.44 1.702C-.84-1.07 1.15-5 4.8-5h141.21c3.65 0 5.64 3.93 3.34 6.702z"></path></svg>
